<?xml version="1.0" encoding="utf-8"?>
<!-- Generator: Adobe Illustrator 21.0.0, SVG Export Plug-In . SVG Version: 6.00 Build 0)  -->
<svg version="1.1" id="Capa_1" xmlns="http://www.w3.org/2000/svg" xmlns:xlink="http://www.w3.org/1999/xlink" x="0px" y="0px"
	 viewBox="0 0 512 512" style="enable-background:new 0 0 512 512;" xml:space="preserve">
<style type="text/css">
	.st0{fill:#D00717;}
</style>
<path class="st0" d="M446.9,171.1L277.2,340.9l84.9,84.9l136.8-137.9c17.5-17.5,17.5-46.1,0-63.6L446.9,171.1z"/>
<path class="st0" d="M192.4,256l63.6-63.6l63.6,63.6L256,319.6L192.4,256z"/>
<path class="st0" d="M86.3,362.1l137.9,136.8c17.5,17.5,46.1,17.5,63.6,0l53-51.9L171.1,277.2L86.3,362.1z"/>
<path class="st0" d="M65.1,340.9l169.7-169.7l-84.9-84.9L13.2,224.2c-17.5,17.5-17.5,46.1,0,63.6L65.1,340.9z"/>
<path class="st0" d="M425.7,149.9L287.8,13.2c-17.5-17.5-46.1-17.5-63.6,0l-53,51.9l169.7,169.7L425.7,149.9z"/>
</svg>
